<?xml version="1.0" encoding="utf-8" ?>
<svg baseProfile="tiny" height="1024" version="1.2" width="1024" xmlns="http://www.w3.org/2000/svg" xmlns:ev="http://www.w3.org/2001/xml-events" xmlns:xlink="http://www.w3.org/1999/xlink"><defs /><polygon fill="black" points="56,747 57,748 58,748 57,748" /><polygon fill="black" points="203,566 202,567 201,567 201,568 200,569 200,595 226,595 226,571 225,570 225,568 224,567 223,567 222,566" /><polygon fill="black" points="237,533 236,534 236,547 237,548 251,548 252,547 252,534 251,533" /><polygon fill="black" points="206,533 206,548 207,548 208,547 211,547 212,548 216,548 217,547 218,547 219,548 220,548 221,547 220,546 221,545 220,544 221,543 221,534 220,533" /><polygon fill="black" points="175,533 175,547 176,548 177,547 178,547 179,548 180,547 190,547 190,533" /><polygon fill="black" points="388,517 388,518 389,517" /><polygon fill="black" points="206,501 206,517 218,517 219,518 220,517 220,501" /><polygon fill="black" points="237,500 236,501 236,517 252,517 252,501 238,501" /><polygon fill="black" points="176,500 175,501 175,517 190,517 190,501 177,501" /><polygon fill="black" points="557,483 557,534 570,534 570,483" /><polygon fill="black" points="863,482 862,483 860,483 859,484 858,484 857,485 856,485 849,492 849,493 848,494 848,495 847,496 847,497 846,498 846,501 845,502 845,516 846,517 846,519 847,520 847,522 849,524 849,525 851,527 851,528 853,530 854,530 856,532 857,532 858,533 859,533 860,534 862,534 863,535 876,535 877,534 880,534 881,533 882,533 883,532 884,532 885,531 886,531 888,529 889,529 890,528 890,527 889,526 889,525 886,522 886,521 885,520 884,520 883,521 882,521 881,522 880,522 879,523 877,523 876,524 866,524 865,523 864,523 862,521 861,521 860,520 860,519 859,518 859,517 858,516 858,513 859,512 860,513 861,512 882,512 883,513 884,513 885,512 890,512 891,513 891,509 892,508 891,507 891,500 890,499 890,496 889,495 889,494 888,493 888,492 886,490 886,489 884,487 883,487 880,484 879,484 878,483 876,483 875,482" /><polygon fill="black" points="774,482 773,483 771,483 770,484 769,484 768,485 767,485 760,492 760,493 759,494 759,495 758,496 758,498 757,499 757,502 756,503 756,515 757,516 757,519 758,520 758,521 759,522 759,523 760,524 760,525 763,528 763,529 764,530 765,530 767,532 768,532 769,533 770,533 771,534 772,534 773,535 787,535 788,534 789,534 790,533 792,533 795,530 796,530 798,528 798,527 801,524 801,523 802,522 802,520 803,519 803,517 804,516 804,509 805,508 804,507 804,501 803,500 803,498 802,497 802,496 801,495 801,494 800,493 800,492 798,490 798,489 796,487 795,487 793,485 792,485 791,484 790,484 789,483 787,483 786,482" /><polygon fill="black" points="651,482 650,483 648,483 647,484 646,484 645,485 644,485 642,487 641,487 641,488 638,491 638,492 637,493 637,494 636,495 636,496 635,497 635,500 634,501 634,506 633,507 633,512 634,513 634,518 635,519 635,521 636,522 636,523 637,524 637,525 639,527 639,528 641,530 642,530 644,532 645,532 646,533 649,533 650,534 659,534 660,533 662,533 663,532 664,532 666,530 667,530 669,528 670,529 670,535 669,536 669,538 667,540 667,541 666,542 665,542 663,544 661,544 660,545 653,545 652,544 649,544 648,543 646,543 645,542 643,542 642,541 641,541 640,540 640,541 639,542 639,543 638,544 638,545 637,546 637,547 636,548 636,549 635,550 636,551 637,551 638,552 639,552 640,553 641,553 642,554 644,554 645,555 648,555 649,556 656,556 657,557 658,557 659,556 665,556 666,555 669,555 671,553 672,553 673,552 674,552 678,548 678,547 680,545 680,544 681,543 681,542 682,541 682,538 683,537 683,483 672,483 672,487 671,488 669,486 668,486 666,484 665,484 664,483 662,483 661,482" /><polygon fill="black" points="604,482 603,483 601,483 600,484 599,484 594,489 593,488 593,487 594,486 593,485 593,483 580,483 580,534 593,534 593,506 594,505 594,501 595,500 595,499 600,494 602,494 603,493 605,493 606,494 608,494 612,498 612,500 613,501 613,534 626,534 626,496 625,495 625,493 624,492 624,491 623,490 623,489 618,484 617,484 616,483 614,483 613,482" /><polygon fill="black" points="465,482 464,483 462,483 461,484 460,484 459,485 458,485 457,486 456,486 450,492 450,493 449,494 449,495 448,496 448,497 447,498 447,500 446,501 446,507 445,508 446,509 446,516 447,517 447,519 448,520 448,521 449,522 449,523 450,524 450,525 456,531 457,531 459,533 460,533 461,534 463,534 464,535 469,535 470,536 471,536 472,535 478,535 479,534 480,534 481,533 482,533 483,532 484,532 485,531 486,531 491,526 491,525 493,523 493,522 494,521 494,520 495,519 495,517 496,516 496,502 495,501 495,499 494,498 494,497 493,496 493,495 492,494 492,493 490,491 490,490 487,487 486,487 484,485 483,485 482,484 481,484 480,483 478,483 477,482" /><polygon fill="black" points="410,482 409,483 407,483 406,484 404,484 402,486 401,486 395,492 395,493 393,495 393,497 392,498 392,499 391,500 391,504 390,505 390,512 391,513 391,517 392,518 392,520 393,521 393,522 394,523 394,524 397,527 397,528 398,528 402,532 403,532 404,533 405,533 406,534 408,534 409,535 414,535 415,536 416,535 422,535 423,534 425,534 426,533 427,533 428,532 429,532 432,529 433,529 434,528 434,527 437,524 437,523 438,522 438,521 439,520 439,518 440,517 440,515 441,514 441,504 440,503 440,500 439,499 439,497 438,496 438,495 436,493 436,492 429,485 428,485 427,484 426,484 425,483 423,483 422,482" /><polygon fill="black" points="814,467 814,482 813,483 807,483 807,493 813,493 814,494 814,524 815,525 815,527 817,529 817,530 820,533 821,533 822,534 824,534 825,535 837,535 838,534 840,534 841,533 842,533 844,531 843,530 843,529 842,528 842,526 841,525 841,523 840,522 839,523 838,523 837,524 833,524 832,523 830,523 828,521 828,519 827,518 827,494 828,493 837,493 838,494 839,493 839,483 828,483 827,482 827,467" /><polygon fill="black" points="695,462 694,463 694,534 709,534 709,505 710,504 735,504 736,505 736,534 749,534 749,462 736,462 736,491 735,492 710,492 709,491 709,463 708,462" /><polygon fill="black" points="334,462 334,534 335,535 363,535 364,534 369,534 370,533 372,533 373,532 374,532 375,531 376,531 377,530 378,530 382,526 382,525 383,524 383,523 384,522 384,521 385,520 385,518 386,517 386,508 385,507 385,505 384,504 384,503 378,497 377,497 376,496 380,492 380,491 381,490 381,489 382,488 382,484 383,483 382,482 382,476 381,475 381,474 380,473 380,472 378,470 378,469 377,468 376,468 374,466 373,466 372,465 371,465 370,464 368,464 367,463 360,463 359,462" /><polygon fill="black" points="899,461 899,534 912,534 912,461" /><polygon fill="black" points="503,461 503,534 517,534 517,521 516,520 517,519 517,518 516,517 516,512 517,511 520,511 521,512 521,513 523,515 523,516 526,519 526,520 528,522 528,523 530,525 530,526 532,528 532,529 534,531 534,532 536,534 552,534 550,532 550,531 548,529 548,528 545,525 545,524 543,522 543,521 541,519 541,518 538,515 538,514 536,512 536,511 533,508 533,507 532,506 534,504 534,503 539,498 539,497 543,493 543,492 548,487 548,486 550,484 550,483 535,483 533,485 533,486 530,489 530,490 526,494 526,495 522,499 522,500 520,502 517,502 516,501 516,461" /><polygon fill="black" points="560,460 559,461 558,461 556,463 556,465 555,466 555,470 556,471 556,472 559,475 562,475 563,476 564,475 568,475 570,473 570,472 571,471 571,464 570,463 570,462 569,461 568,461 567,460" /><polygon fill="black" points="150,406 149,407 146,407 145,408 143,408 142,409 141,409 140,410 139,410 137,412 136,412 132,416 132,417 129,420 129,421 128,422 128,423 127,424 127,427 126,428 126,572 127,573 127,575 128,576 128,578 129,579 129,580 130,581 130,582 132,584 132,585 136,589 137,589 139,591 140,591 141,592 142,592 143,593 144,593 145,594 147,594 148,595 159,595 159,485 162,482 194,482 195,483 196,482 198,482 199,483 200,482 251,482 252,483 253,483 254,482 263,482 264,483 266,483 267,484 267,595 278,595 279,594 281,594 282,593 284,593 285,592 286,592 288,590 289,590 294,585 294,584 296,582 296,581 298,579 298,577 299,576 299,574 300,573 300,427 299,426 299,424 298,423 298,422 297,421 297,420 296,419 296,418 290,412 289,412 287,410 286,410 285,409 284,409 283,408 281,408 280,407 277,407 276,406" /><polygon fill="black" points="766,273 766,274 767,273" /></svg>