<svg width="218" height="35" viewBox="0 0 218 35" fill="none" xmlns="http://www.w3.org/2000/svg">
<path d="M37.652 28V8.064H43.252V28H37.652ZM49.692 28V8.064H55.292V28H49.692ZM40.704 20.16V15.512H51.876V20.16H40.704ZM65.2053 28.336C63.6933 28.336 62.34 28.028 61.1453 27.412C59.9693 26.7773 59.036 25.9093 58.3453 24.808C57.6733 23.7067 57.3373 22.4653 57.3373 21.084C57.3373 19.7027 57.6733 18.4707 58.3453 17.388C59.0173 16.3053 59.9413 15.456 61.1173 14.84C62.312 14.2053 63.6653 13.888 65.1773 13.888C66.6893 13.888 68.0333 14.2053 69.2093 14.84C70.3853 15.456 71.3093 16.3053 71.9813 17.388C72.672 18.4707 73.0173 19.7027 73.0173 21.084C73.0173 22.4653 72.6813 23.7067 72.0093 24.808C71.3373 25.9093 70.4133 26.7773 69.2373 27.412C68.0613 28.028 66.7173 28.336 65.2053 28.336ZM65.1773 23.52C65.644 23.52 66.0453 23.4267 66.3813 23.24C66.736 23.0347 67.0066 22.7547 67.1933 22.4C67.38 22.0267 67.4733 21.5973 67.4733 21.112C67.4733 20.6267 67.3706 20.2067 67.1653 19.852C66.9786 19.4787 66.7173 19.1987 66.3813 19.012C66.0453 18.8067 65.644 18.704 65.1773 18.704C64.7293 18.704 64.328 18.8067 63.9733 19.012C63.6373 19.2173 63.3666 19.5067 63.1613 19.88C62.9746 20.2347 62.8813 20.6547 62.8813 21.14C62.8813 21.6067 62.9746 22.0267 63.1613 22.4C63.3666 22.7547 63.6373 23.0347 63.9733 23.24C64.328 23.4267 64.7293 23.52 65.1773 23.52ZM76.3782 28V8.568H81.8662V28H76.3782ZM73.4382 18.704V14.224H84.8062V18.704H73.4382ZM93.3199 28.336C91.7146 28.336 90.3053 28.0373 89.0919 27.44C87.8786 26.824 86.9266 25.9747 86.2359 24.892C85.5639 23.7907 85.2279 22.5307 85.2279 21.112C85.2279 19.712 85.5546 18.4707 86.2079 17.388C86.8799 16.3053 87.7946 15.456 88.9519 14.84C90.1093 14.2053 91.4159 13.888 92.8719 13.888C94.3093 13.888 95.5786 14.1867 96.6799 14.784C97.7813 15.3627 98.6399 16.1747 99.2559 17.22C99.8906 18.2653 100.208 19.46 100.208 20.804C100.208 21.084 100.189 21.3827 100.152 21.7C100.133 21.9987 100.077 22.3533 99.9839 22.764L87.5519 22.848V19.488L97.9399 19.404L95.3919 20.888C95.3919 20.1413 95.2986 19.5347 95.1119 19.068C94.9439 18.5827 94.6826 18.2187 94.3279 17.976C93.9733 17.7333 93.5253 17.612 92.9839 17.612C92.4239 17.612 91.9386 17.752 91.5279 18.032C91.1173 18.312 90.7999 18.7133 90.5759 19.236C90.3706 19.7587 90.2679 20.3933 90.2679 21.14C90.2679 21.9053 90.3799 22.5493 90.6039 23.072C90.8466 23.576 91.1919 23.9587 91.6399 24.22C92.0879 24.4813 92.6479 24.612 93.3199 24.612C93.9733 24.612 94.5426 24.5093 95.0279 24.304C95.5319 24.08 95.9893 23.7347 96.3999 23.268L99.1439 25.984C98.4533 26.768 97.6226 27.356 96.6519 27.748C95.6813 28.14 94.5706 28.336 93.3199 28.336ZM101.847 28V7.504H107.335V28H101.847ZM114.84 28V23.968H118.508C119.218 23.968 119.787 23.7813 120.216 23.408C120.646 23.016 120.86 22.484 120.86 21.812C120.86 21.364 120.758 20.9813 120.552 20.664C120.366 20.328 120.095 20.076 119.74 19.908C119.404 19.74 118.994 19.656 118.508 19.656H114.84V15.792H118.256C118.854 15.792 119.348 15.6427 119.74 15.344C120.132 15.0453 120.328 14.5787 120.328 13.944C120.328 13.3093 120.132 12.8427 119.74 12.544C119.348 12.2453 118.854 12.096 118.256 12.096H114.84V8.064H119.824C121.038 8.064 122.092 8.29733 122.988 8.764C123.903 9.212 124.612 9.83733 125.116 10.64C125.62 11.424 125.872 12.3293 125.872 13.356C125.872 14.7747 125.368 15.932 124.36 16.828C123.352 17.724 121.878 18.2373 119.936 18.368L119.88 16.436C121.99 16.5667 123.604 17.1453 124.724 18.172C125.844 19.1987 126.404 20.5147 126.404 22.12C126.404 23.2773 126.115 24.304 125.536 25.2C124.958 26.0773 124.146 26.768 123.1 27.272C122.074 27.7573 120.87 28 119.488 28H114.84ZM110.304 28V8.064H115.792V28H110.304ZM135.369 28.336C133.857 28.336 132.504 28.028 131.309 27.412C130.133 26.7773 129.2 25.9093 128.509 24.808C127.837 23.7067 127.501 22.4653 127.501 21.084C127.501 19.7027 127.837 18.4707 128.509 17.388C129.181 16.3053 130.105 15.456 131.281 14.84C132.476 14.2053 133.829 13.888 135.341 13.888C136.853 13.888 138.197 14.2053 139.373 14.84C140.549 15.456 141.473 16.3053 142.145 17.388C142.836 18.4707 143.181 19.7027 143.181 21.084C143.181 22.4653 142.845 23.7067 142.173 24.808C141.501 25.9093 140.577 26.7773 139.401 27.412C138.225 28.028 136.881 28.336 135.369 28.336ZM135.341 23.52C135.808 23.52 136.209 23.4267 136.545 23.24C136.9 23.0347 137.171 22.7547 137.357 22.4C137.544 22.0267 137.637 21.5973 137.637 21.112C137.637 20.6267 137.535 20.2067 137.329 19.852C137.143 19.4787 136.881 19.1987 136.545 19.012C136.209 18.8067 135.808 18.704 135.341 18.704C134.893 18.704 134.492 18.8067 134.137 19.012C133.801 19.2173 133.531 19.5067 133.325 19.88C133.139 20.2347 133.045 20.6547 133.045 21.14C133.045 21.6067 133.139 22.0267 133.325 22.4C133.531 22.7547 133.801 23.0347 134.137 23.24C134.492 23.4267 134.893 23.52 135.341 23.52ZM151.83 28.336C150.318 28.336 148.965 28.028 147.77 27.412C146.594 26.7773 145.661 25.9093 144.97 24.808C144.298 23.7067 143.962 22.4653 143.962 21.084C143.962 19.7027 144.298 18.4707 144.97 17.388C145.642 16.3053 146.566 15.456 147.742 14.84C148.937 14.2053 150.29 13.888 151.802 13.888C153.314 13.888 154.658 14.2053 155.834 14.84C157.01 15.456 157.934 16.3053 158.606 17.388C159.297 18.4707 159.642 19.7027 159.642 21.084C159.642 22.4653 159.306 23.7067 158.634 24.808C157.962 25.9093 157.038 26.7773 155.862 27.412C154.686 28.028 153.342 28.336 151.83 28.336ZM151.802 23.52C152.269 23.52 152.67 23.4267 153.006 23.24C153.361 23.0347 153.632 22.7547 153.818 22.4C154.005 22.0267 154.098 21.5973 154.098 21.112C154.098 20.6267 153.996 20.2067 153.79 19.852C153.604 19.4787 153.342 19.1987 153.006 19.012C152.67 18.8067 152.269 18.704 151.802 18.704C151.354 18.704 150.953 18.8067 150.598 19.012C150.262 19.2173 149.992 19.5067 149.786 19.88C149.6 20.2347 149.506 20.6547 149.506 21.14C149.506 21.6067 149.6 22.0267 149.786 22.4C149.992 22.7547 150.262 23.0347 150.598 23.24C150.953 23.4267 151.354 23.52 151.802 23.52ZM170.223 28L166.387 20.748L170.195 14.224H176.103L171.175 21.588L171.315 19.796L176.383 28H170.223ZM161.347 28V7.504H166.835V28H161.347ZM177.069 28V14.224H182.557V28H177.069ZM179.813 12.936C179.011 12.936 178.339 12.6653 177.797 12.124C177.275 11.564 177.013 10.8827 177.013 10.08C177.013 9.27733 177.275 8.60533 177.797 8.064C178.339 7.504 179.011 7.224 179.813 7.224C180.635 7.224 181.307 7.504 181.829 8.064C182.352 8.60533 182.613 9.27733 182.613 10.08C182.613 10.8827 182.352 11.564 181.829 12.124C181.307 12.6653 180.635 12.936 179.813 12.936ZM193.928 28V20.272C193.928 19.7307 193.769 19.32 193.452 19.04C193.153 18.7413 192.77 18.592 192.304 18.592C191.986 18.592 191.697 18.6573 191.436 18.788C191.193 18.9187 190.997 19.1147 190.848 19.376C190.717 19.6187 190.652 19.9173 190.652 20.272L188.524 19.32C188.524 18.2 188.766 17.2387 189.252 16.436C189.756 15.6333 190.437 15.0173 191.296 14.588C192.173 14.1587 193.162 13.944 194.264 13.944C195.253 13.944 196.13 14.168 196.896 14.616C197.68 15.0453 198.296 15.6427 198.744 16.408C199.192 17.1547 199.416 18.0227 199.416 19.012V28H193.928ZM185.164 28V14.224H190.652V28H185.164ZM207.669 34.328C206.12 34.328 204.748 34.0667 203.553 33.544C202.359 33.04 201.435 32.3213 200.781 31.388L204.029 28.168C204.459 28.6347 204.935 28.9987 205.457 29.26C205.98 29.54 206.615 29.68 207.361 29.68C208.257 29.68 208.957 29.4653 209.461 29.036C209.984 28.6067 210.245 27.9813 210.245 27.16V23.52L211.141 20.552L210.385 17.612V14.224H215.733V26.936C215.733 28.448 215.379 29.7547 214.669 30.856C213.96 31.9573 212.999 32.8067 211.785 33.404C210.572 34.02 209.2 34.328 207.669 34.328ZM207.417 27.44C206.129 27.44 204.991 27.1413 204.001 26.544C203.012 25.9467 202.237 25.1347 201.677 24.108C201.117 23.0813 200.837 21.9427 200.837 20.692C200.837 19.4227 201.117 18.284 201.677 17.276C202.237 16.2493 203.012 15.4373 204.001 14.84C204.991 14.2427 206.129 13.944 207.417 13.944C208.22 13.944 208.957 14.084 209.629 14.364C210.32 14.6253 210.889 14.9987 211.337 15.484C211.804 15.9693 212.103 16.5293 212.233 17.164V24.22C212.103 24.8547 211.804 25.4147 211.337 25.9C210.889 26.3853 210.32 26.768 209.629 27.048C208.957 27.3093 208.22 27.44 207.417 27.44ZM208.425 22.764C208.873 22.764 209.256 22.6613 209.573 22.456C209.891 22.2507 210.133 21.9893 210.301 21.672C210.469 21.3547 210.553 21.0187 210.553 20.664C210.553 20.3093 210.469 19.9733 210.301 19.656C210.133 19.3387 209.891 19.0773 209.573 18.872C209.275 18.6667 208.901 18.564 208.453 18.564C208.024 18.564 207.651 18.6667 207.333 18.872C207.016 19.0773 206.773 19.348 206.605 19.684C206.437 20.0013 206.353 20.328 206.353 20.664C206.353 20.9813 206.437 21.308 206.605 21.644C206.773 21.9613 207.007 22.232 207.305 22.456C207.623 22.6613 207.996 22.764 208.425 22.764Z" fill="white"/>
<path fill-rule="evenodd" clip-rule="evenodd" d="M0.70092 11.8607C8.04663e-08 13.1412 0 14.6859 0 17.7753V19.8288C0 25.0948 1.60933e-07 27.728 1.58162 29.3639C3.16325 31 5.70883 31 10.8 31H16.2C21.2911 31 23.8368 31 25.4183 29.3639C27 27.728 27 25.0948 27 19.8288V17.7753C27 14.6859 27 13.1412 26.2991 11.8607C25.5982 10.5802 24.3177 9.78544 21.7566 8.19596L19.0566 6.52027C16.3493 4.84009 14.9957 4 13.5 4C12.0043 4 10.6507 4.84009 7.94344 6.52027L5.24344 8.19598C2.68238 9.78544 1.40184 10.5802 0.70092 11.8607ZM10.0529 22.0866C9.6037 21.7536 8.96958 21.8478 8.63659 22.2971C8.30361 22.7464 8.39784 23.3805 8.84708 23.7134C10.1598 24.6865 11.7653 25.2625 13.5 25.2625C15.2348 25.2625 16.8402 24.6865 18.1529 23.7134C18.6022 23.3805 18.6964 22.7464 18.3634 22.2971C18.0305 21.8478 17.3964 21.7536 16.9471 22.0866C15.9638 22.8154 14.777 23.2375 13.5 23.2375C12.223 23.2375 11.0363 22.8154 10.0529 22.0866Z" fill="white"/>
</svg>
