<svg width="161" height="27" viewBox="0 0 161 27" fill="none" xmlns="http://www.w3.org/2000/svg">
<rect width="161" height="27" fill="#1E1E1E"/>
<path d="M33.18 22V7.76H37.18V22H33.18ZM41.78 22V7.76H45.78V22H41.78ZM35.36 16.4V13.08H43.34V16.4H35.36ZM52.8609 22.24C51.7809 22.24 50.8143 22.02 49.9609 21.58C49.1209 21.1267 48.4543 20.5067 47.9609 19.72C47.4809 18.9333 47.2409 18.0467 47.2409 17.06C47.2409 16.0733 47.4809 15.1933 47.9609 14.42C48.4409 13.6467 49.1009 13.04 49.9409 12.6C50.7943 12.1467 51.7609 11.92 52.8409 11.92C53.9209 11.92 54.8809 12.1467 55.7209 12.6C56.5609 13.04 57.2209 13.6467 57.7009 14.42C58.1943 15.1933 58.4409 16.0733 58.4409 17.06C58.4409 18.0467 58.2009 18.9333 57.7209 19.72C57.2409 20.5067 56.5809 21.1267 55.7409 21.58C54.9009 22.02 53.9409 22.24 52.8609 22.24ZM52.8409 18.8C53.1743 18.8 53.4609 18.7333 53.7009 18.6C53.9543 18.4533 54.1476 18.2533 54.2809 18C54.4143 17.7333 54.4809 17.4267 54.4809 17.08C54.4809 16.7333 54.4076 16.4333 54.2609 16.18C54.1276 15.9133 53.9409 15.7133 53.7009 15.58C53.4609 15.4333 53.1743 15.36 52.8409 15.36C52.5209 15.36 52.2343 15.4333 51.9809 15.58C51.7409 15.7267 51.5476 15.9333 51.4009 16.2C51.2676 16.4533 51.2009 16.7533 51.2009 17.1C51.2009 17.4333 51.2676 17.7333 51.4009 18C51.5476 18.2533 51.7409 18.4533 51.9809 18.6C52.2343 18.7333 52.5209 18.8 52.8409 18.8ZM60.8416 22V8.12H64.7616V22H60.8416ZM58.7416 15.36V12.16H66.8616V15.36H58.7416ZM72.9428 22.24C71.7961 22.24 70.7895 22.0267 69.9228 21.6C69.0561 21.16 68.3761 20.5533 67.8828 19.78C67.4028 18.9933 67.1628 18.0933 67.1628 17.08C67.1628 16.08 67.3961 15.1933 67.8628 14.42C68.3428 13.6467 68.9961 13.04 69.8228 12.6C70.6495 12.1467 71.5828 11.92 72.6228 11.92C73.6495 11.92 74.5561 12.1333 75.3428 12.56C76.1295 12.9733 76.7428 13.5533 77.1828 14.3C77.6361 15.0467 77.8628 15.9 77.8628 16.86C77.8628 17.06 77.8495 17.2733 77.8228 17.5C77.8095 17.7133 77.7695 17.9667 77.7028 18.26L68.8228 18.32V15.92L76.2428 15.86L74.4228 16.92C74.4228 16.3867 74.3561 15.9533 74.2228 15.62C74.1028 15.2733 73.9161 15.0133 73.6628 14.84C73.4095 14.6667 73.0895 14.58 72.7028 14.58C72.3028 14.58 71.9561 14.68 71.6628 14.88C71.3695 15.08 71.1428 15.3667 70.9828 15.74C70.8361 16.1133 70.7628 16.5667 70.7628 17.1C70.7628 17.6467 70.8428 18.1067 71.0028 18.48C71.1761 18.84 71.4228 19.1133 71.7428 19.3C72.0628 19.4867 72.4628 19.58 72.9428 19.58C73.4095 19.58 73.8161 19.5067 74.1628 19.36C74.5228 19.2 74.8495 18.9533 75.1428 18.62L77.1028 20.56C76.6095 21.12 76.0161 21.54 75.3228 21.82C74.6295 22.1 73.8361 22.24 72.9428 22.24ZM79.0338 22V7.36H82.9538V22H79.0338ZM88.3145 22V19.12H90.9345C91.4412 19.12 91.8479 18.9867 92.1545 18.72C92.4612 18.44 92.6145 18.06 92.6145 17.58C92.6145 17.26 92.5412 16.9867 92.3945 16.76C92.2612 16.52 92.0679 16.34 91.8145 16.22C91.5745 16.1 91.2812 16.04 90.9345 16.04H88.3145V13.28H90.7545C91.1812 13.28 91.5345 13.1733 91.8145 12.96C92.0945 12.7467 92.2345 12.4133 92.2345 11.96C92.2345 11.5067 92.0945 11.1733 91.8145 10.96C91.5345 10.7467 91.1812 10.64 90.7545 10.64H88.3145V7.76H91.8745C92.7412 7.76 93.4945 7.92667 94.1345 8.26C94.7879 8.58 95.2945 9.02667 95.6545 9.6C96.0145 10.16 96.1945 10.8067 96.1945 11.54C96.1945 12.5533 95.8345 13.38 95.1145 14.02C94.3945 14.66 93.3412 15.0267 91.9545 15.12L91.9145 13.74C93.4212 13.8333 94.5745 14.2467 95.3745 14.98C96.1745 15.7133 96.5745 16.6533 96.5745 17.8C96.5745 18.6267 96.3679 19.36 95.9545 20C95.5412 20.6267 94.9612 21.12 94.2145 21.48C93.4812 21.8267 92.6212 22 91.6345 22H88.3145ZM85.0745 22V7.76H88.9945V22H85.0745ZM102.978 22.24C101.898 22.24 100.931 22.02 100.078 21.58C99.2381 21.1267 98.5715 20.5067 98.0781 19.72C97.5981 18.9333 97.3581 18.0467 97.3581 17.06C97.3581 16.0733 97.5981 15.1933 98.0781 14.42C98.5581 13.6467 99.2181 13.04 100.058 12.6C100.911 12.1467 101.878 11.92 102.958 11.92C104.038 11.92 104.998 12.1467 105.838 12.6C106.678 13.04 107.338 13.6467 107.818 14.42C108.311 15.1933 108.558 16.0733 108.558 17.06C108.558 18.0467 108.318 18.9333 107.838 19.72C107.358 20.5067 106.698 21.1267 105.858 21.58C105.018 22.02 104.058 22.24 102.978 22.24ZM102.958 18.8C103.291 18.8 103.578 18.7333 103.818 18.6C104.071 18.4533 104.265 18.2533 104.398 18C104.531 17.7333 104.598 17.4267 104.598 17.08C104.598 16.7333 104.525 16.4333 104.378 16.18C104.245 15.9133 104.058 15.7133 103.818 15.58C103.578 15.4333 103.291 15.36 102.958 15.36C102.638 15.36 102.351 15.4333 102.098 15.58C101.858 15.7267 101.665 15.9333 101.518 16.2C101.385 16.4533 101.318 16.7533 101.318 17.1C101.318 17.4333 101.385 17.7333 101.518 18C101.665 18.2533 101.858 18.4533 102.098 18.6C102.351 18.7333 102.638 18.8 102.958 18.8ZM114.736 22.24C113.656 22.24 112.689 22.02 111.836 21.58C110.996 21.1267 110.329 20.5067 109.836 19.72C109.356 18.9333 109.116 18.0467 109.116 17.06C109.116 16.0733 109.356 15.1933 109.836 14.42C110.316 13.6467 110.976 13.04 111.816 12.6C112.669 12.1467 113.636 11.92 114.716 11.92C115.796 11.92 116.756 12.1467 117.596 12.6C118.436 13.04 119.096 13.6467 119.576 14.42C120.069 15.1933 120.316 16.0733 120.316 17.06C120.316 18.0467 120.076 18.9333 119.596 19.72C119.116 20.5067 118.456 21.1267 117.616 21.58C116.776 22.02 115.816 22.24 114.736 22.24ZM114.716 18.8C115.049 18.8 115.336 18.7333 115.576 18.6C115.829 18.4533 116.023 18.2533 116.156 18C116.289 17.7333 116.356 17.4267 116.356 17.08C116.356 16.7333 116.283 16.4333 116.136 16.18C116.003 15.9133 115.816 15.7133 115.576 15.58C115.336 15.4333 115.049 15.36 114.716 15.36C114.396 15.36 114.109 15.4333 113.856 15.58C113.616 15.7267 113.423 15.9333 113.276 16.2C113.143 16.4533 113.076 16.7533 113.076 17.1C113.076 17.4333 113.143 17.7333 113.276 18C113.423 18.2533 113.616 18.4533 113.856 18.6C114.109 18.7333 114.396 18.8 114.716 18.8ZM127.874 22L125.134 16.82L127.854 12.16H132.074L128.554 17.42L128.654 16.14L132.274 22H127.874ZM121.534 22V7.36H125.454V22H121.534ZM132.764 22V12.16H136.684V22H132.764ZM134.724 11.24C134.15 11.24 133.67 11.0467 133.284 10.66C132.91 10.26 132.724 9.77333 132.724 9.2C132.724 8.62667 132.91 8.14667 133.284 7.76C133.67 7.36 134.15 7.16 134.724 7.16C135.31 7.16 135.79 7.36 136.164 7.76C136.537 8.14667 136.724 8.62667 136.724 9.2C136.724 9.77333 136.537 10.26 136.164 10.66C135.79 11.0467 135.31 11.24 134.724 11.24ZM144.805 22V16.48C144.805 16.0933 144.692 15.8 144.465 15.6C144.252 15.3867 143.979 15.28 143.645 15.28C143.419 15.28 143.212 15.3267 143.025 15.42C142.852 15.5133 142.712 15.6533 142.605 15.84C142.512 16.0133 142.465 16.2267 142.465 16.48L140.945 15.8C140.945 15 141.119 14.3133 141.465 13.74C141.825 13.1667 142.312 12.7267 142.925 12.42C143.552 12.1133 144.259 11.96 145.045 11.96C145.752 11.96 146.379 12.12 146.925 12.44C147.485 12.7467 147.925 13.1733 148.245 13.72C148.565 14.2533 148.725 14.8733 148.725 15.58V22H144.805ZM138.545 22V12.16H142.465V22H138.545ZM154.621 26.52C153.514 26.52 152.534 26.3333 151.681 25.96C150.828 25.6 150.168 25.0867 149.701 24.42L152.021 22.12C152.328 22.4533 152.668 22.7133 153.041 22.9C153.414 23.1 153.868 23.2 154.401 23.2C155.041 23.2 155.541 23.0467 155.901 22.74C156.274 22.4333 156.461 21.9867 156.461 21.4V18.8L157.101 16.68L156.561 14.58V12.16H160.381V21.24C160.381 22.32 160.128 23.2533 159.621 24.04C159.114 24.8267 158.428 25.4333 157.561 25.86C156.694 26.3 155.714 26.52 154.621 26.52ZM154.441 21.6C153.521 21.6 152.708 21.3867 152.001 20.96C151.294 20.5333 150.741 19.9533 150.341 19.22C149.941 18.4867 149.741 17.6733 149.741 16.78C149.741 15.8733 149.941 15.06 150.341 14.34C150.741 13.6067 151.294 13.0267 152.001 12.6C152.708 12.1733 153.521 11.96 154.441 11.96C155.014 11.96 155.541 12.06 156.021 12.26C156.514 12.4467 156.921 12.7133 157.241 13.06C157.574 13.4067 157.788 13.8067 157.881 14.26V19.3C157.788 19.7533 157.574 20.1533 157.241 20.5C156.921 20.8467 156.514 21.12 156.021 21.32C155.541 21.5067 155.014 21.6 154.441 21.6ZM155.161 18.26C155.481 18.26 155.754 18.1867 155.981 18.04C156.208 17.8933 156.381 17.7067 156.501 17.48C156.621 17.2533 156.681 17.0133 156.681 16.76C156.681 16.5067 156.621 16.2667 156.501 16.04C156.381 15.8133 156.208 15.6267 155.981 15.48C155.768 15.3333 155.501 15.26 155.181 15.26C154.874 15.26 154.608 15.3333 154.381 15.48C154.154 15.6267 153.981 15.82 153.861 16.06C153.741 16.2867 153.681 16.52 153.681 16.76C153.681 16.9867 153.741 17.22 153.861 17.46C153.981 17.6867 154.148 17.88 154.361 18.04C154.588 18.1867 154.854 18.26 155.161 18.26Z" fill="white"/>
<path fill-rule="evenodd" clip-rule="evenodd" d="M0.70092 7.8607C8.04663e-08 9.14123 0 10.6859 0 13.7753V15.8288C0 21.0948 1.60933e-07 23.728 1.58162 25.3639C3.16325 27 5.70883 27 10.8 27H16.2C21.2911 27 23.8368 27 25.4183 25.3639C27 23.728 27 21.0948 27 15.8288V13.7753C27 10.6859 27 9.14123 26.2991 7.8607C25.5982 6.58018 24.3177 5.78544 21.7566 4.19596L19.0566 2.52027C16.3493 0.840091 14.9957 0 13.5 0C12.0043 0 10.6507 0.840091 7.94344 2.52027L5.24344 4.19598C2.68238 5.78544 1.40184 6.58018 0.70092 7.8607ZM10.0529 18.0866C9.6037 17.7536 8.96958 17.8478 8.63659 18.2971C8.30361 18.7464 8.39784 19.3805 8.84708 19.7134C10.1598 20.6865 11.7653 21.2625 13.5 21.2625C15.2348 21.2625 16.8402 20.6865 18.1529 19.7134C18.6022 19.3805 18.6964 18.7464 18.3634 18.2971C18.0305 17.8478 17.3964 17.7536 16.9471 18.0866C15.9638 18.8154 14.777 19.2375 13.5 19.2375C12.223 19.2375 11.0363 18.8154 10.0529 18.0866Z" fill="white"/>
</svg>
